<svg width="34" height="39" viewBox="0 0 34 39" fill="none" xmlns="http://www.w3.org/2000/svg">
<g clip-path="url(#clip0_7_248)">
<path d="M24.9606 32.4208C25.4645 33.1488 25.6596 33.6909 25.7068 34.0655C25.7514 34.4202 25.6637 34.6069 25.5995 34.6836C25.4918 34.7011 25.3494 34.6911 25.1744 34.6485C24.9741 34.5997 24.7518 34.5135 24.5257 34.406C24.1779 34.2405 23.8363 34.0316 23.5758 33.8536L24.9606 32.4208Z" fill="#865B25" stroke="#0B0600"/>
<path d="M14.5217 34.17C15.069 33.8814 15.905 34.2 16.3491 35.046C16.7933 35.892 16.5819 36.7629 16.0347 37.0515C15.4874 37.34 14.6514 37.0214 14.2072 36.1754C13.763 35.3295 13.9745 34.4585 14.5217 34.17Z" fill="#6F4B1C" stroke="black"/>
<path d="M25.4677 18.4483C27.5338 18.2364 29.2856 19.4822 29.4556 21.1462C29.6256 22.8103 28.1621 24.3861 26.096 24.598C24.0299 24.81 22.2781 23.5641 22.1081 21.9001C21.9381 20.2361 23.4017 18.6603 25.4677 18.4483Z" fill="#CFE7DD" stroke="black"/>
<path d="M19.7581 34.0404C20.3054 33.7518 21.1414 34.0704 21.5855 34.9165C22.0297 35.7624 21.8182 36.6333 21.2711 36.9219C20.7238 37.2105 19.8878 36.8919 19.4436 36.0458C18.9994 35.1999 19.2108 34.3289 19.7581 34.0404Z" fill="#6F4B1C" stroke="black"/>
<path d="M17.735 5.81025C17.929 4.46058 18.9245 1.69646 21.3552 1.43732" stroke="black" stroke-linecap="round"/>
<path d="M21.9723 3.48195C22.5699 3.24488 22.8359 2.49986 22.5665 1.81788C22.297 1.13591 21.5942 0.775236 20.9967 1.0123C20.3992 1.24937 20.1332 1.9944 20.4026 2.67637C20.672 3.35834 21.3748 3.71902 21.9723 3.48195Z" fill="black"/>
<path d="M10.7532 5.63621C10.5646 4.18093 9.59667 1.20053 7.23339 0.921112" stroke="black" stroke-linecap="round"/>
<path d="M6.63338 3.12573C6.05242 2.87011 5.79381 2.06679 6.05575 1.33145C6.3177 0.596108 7.00101 0.207215 7.58197 0.46283C8.16293 0.718444 8.42154 1.52177 8.1596 2.25711C7.89765 2.99245 7.21434 3.38134 6.63338 3.12573Z" fill="black"/>
<path d="M22.7908 12.5461C23.9838 11.4141 25.3828 10.7407 26.6723 10.5586C27.9624 10.3765 29.1226 10.6866 29.8826 11.4909C30.6425 12.2952 30.8881 13.4731 30.6362 14.754C30.3844 16.0345 29.637 17.3976 28.444 18.5295C27.251 19.6615 25.852 20.3349 24.5625 20.517C23.2723 20.6991 22.1122 20.389 21.3523 19.5847C20.5923 18.7804 20.3466 17.6026 20.5985 16.3216C20.8504 15.0412 21.5978 13.678 22.7908 12.5461Z" fill="#CFE7DD" stroke="black"/>
<path d="M20.1872 17.8571C25.4851 19.696 28.3866 25.1117 26.7217 29.9284C25.0568 34.7451 19.4343 37.202 14.1363 35.363C8.83837 33.5239 5.93695 28.1083 7.60181 23.2916C9.26672 18.4749 14.8892 16.0181 20.1872 17.8571Z" fill="#FBCD53" stroke="black"/>
<path d="M16.8295 25.8925C20.9238 25.3147 23.6597 21.8313 23.9506 20.1145L22.9977 19.3423L22.0977 18.6065C20.2649 21.0999 14.9221 22.4848 12.647 22.8022L16.8295 25.8925Z" fill="#875A27" stroke="black"/>
<path d="M23.2635 12.7288C22.1495 6.43731 16.3676 4.77481 13.6158 4.73C6.1364 4.64934 3.7361 10.97 3.47086 14.1404C3.09955 20.0555 10.0795 21.6463 13.6158 21.7023C22.9519 21.7561 23.9376 15.7424 23.2635 12.7288Z" fill="#F8CA4E" stroke="black" stroke-linecap="round"/>
<path d="M7.9734 29.5739C20.3338 32.1653 25.4433 26.0275 26.0682 22.8639C26.9733 23.4599 27.2338 25.7262 27.1799 26.8059C23.9993 33.9322 14.6212 34.2923 10.7855 33.3314C9.41502 32.6836 8.33975 30.5565 7.9734 29.5739Z" fill="#865B25" stroke="#0B0600"/>
<path d="M18.6878 21.72L3.17955 19.0871L1.57553 28.5752L17.0838 31.2081L18.6878 21.72Z" fill="#FFEAB2" stroke="black" stroke-linejoin="round"/>
<path d="M20.5389 24.7197C20.9166 25.4151 20.7603 26.0732 20.4356 26.587C20.1161 27.0924 19.6247 27.4783 19.2691 27.6825L19.2629 27.686L19.2565 27.6892C18.5424 28.041 17.9567 27.9788 17.5189 27.7221C17.0963 27.4742 16.8415 27.063 16.7322 26.7591L16.7263 26.743L16.7231 26.7262C16.6217 26.2138 16.7666 25.8238 17.003 25.5529C17.2311 25.2917 17.5338 25.1522 17.7492 25.101L17.7816 25.0934L17.8149 25.0954C18.9306 25.1621 19.9027 24.8054 20.2334 24.6282L20.4316 24.522L20.5389 24.7197Z" fill="#835723" stroke="#050300"/>
<path d="M2.6818 21.9683C3.379 22.1966 3.78032 23.0875 3.47798 24.0145C3.17561 24.9415 2.32669 25.4229 1.62949 25.1945C0.932299 24.9662 0.53104 24.0752 0.833396 23.1482C1.13576 22.2213 1.98461 21.7399 2.6818 21.9683Z" fill="#7F5620" stroke="black"/>
<path d="M4.91566 24.6027C4.87669 24.8566 4.87958 25.0439 4.92432 25.1644C4.96938 25.2828 5.05262 25.3513 5.17402 25.37C5.2507 25.3818 5.3186 25.3868 5.37775 25.385C5.43722 25.381 5.49038 25.3826 5.53724 25.3899C5.62244 25.403 5.68142 25.4307 5.71419 25.4728C5.74729 25.5129 5.75958 25.5607 5.75107 25.6162C5.73994 25.6888 5.7048 25.7401 5.64566 25.7704C5.58865 25.8009 5.51853 25.8174 5.4353 25.8199C5.3542 25.8227 5.27212 25.8177 5.18906 25.8049C4.95903 25.7695 4.78241 25.6985 4.6592 25.5922C4.53812 25.4861 4.46052 25.3453 4.42643 25.1696C4.39479 24.9921 4.39813 24.7785 4.43644 24.5288C4.47475 24.2791 4.53592 24.0722 4.61994 23.9082C4.70643 23.7423 4.82364 23.6249 4.97157 23.5559C5.12164 23.4873 5.31168 23.4707 5.54171 23.5062C5.62477 23.5189 5.70456 23.5389 5.78107 23.566C5.85971 23.5934 5.92165 23.6302 5.96687 23.6765C6.01423 23.7231 6.03233 23.7827 6.0212 23.8553C6.01302 23.9087 5.98697 23.9505 5.94306 23.9809C5.89916 24.0113 5.83461 24.0199 5.74942 24.0068C5.70256 23.9996 5.6512 23.9862 5.59533 23.9667C5.53979 23.945 5.47368 23.9282 5.39701 23.9165C5.24791 23.8935 5.13955 23.9391 5.07189 24.0532C5.0067 24.1655 4.95462 24.3486 4.91566 24.6027ZM6.78461 26.054C6.59934 26.0254 6.44727 25.9649 6.32849 25.8723C6.21003 25.7776 6.12965 25.6406 6.08736 25.4616C6.0472 25.2828 6.04923 25.0493 6.09343 24.7611C6.13764 24.473 6.20552 24.2507 6.29708 24.0944C6.39078 23.9385 6.50799 23.8353 6.64873 23.7848C6.78946 23.7344 6.95243 23.7235 7.13778 23.752C7.32519 23.7809 7.47736 23.8404 7.59438 23.9305C7.71352 24.021 7.79329 24.1545 7.83376 24.3312C7.87636 24.5082 7.87559 24.7408 7.83137 25.0289C7.78722 25.317 7.71811 25.5401 7.62405 25.6983C7.53219 25.8567 7.4155 25.9633 7.27412 26.018C7.13519 26.0709 6.97202 26.0828 6.78461 26.054ZM6.84945 25.6314C6.93466 25.6445 7.01016 25.6354 7.07604 25.604C7.14398 25.573 7.20216 25.5066 7.25046 25.4047C7.30094 25.3033 7.34122 25.1544 7.37134 24.958C7.40179 24.7595 7.40787 24.6064 7.38951 24.4987C7.37361 24.3892 7.33753 24.3116 7.28136 24.2658C7.22757 24.2182 7.15814 24.1878 7.07294 24.1746C6.98987 24.1619 6.91449 24.1699 6.84687 24.1988C6.77951 24.2256 6.72081 24.2886 6.67064 24.388C6.623 24.4855 6.58395 24.6335 6.5535 24.832C6.52338 25.0283 6.51607 25.1824 6.53165 25.294C6.54936 25.406 6.58602 25.487 6.64155 25.5371C6.69708 25.5872 6.76638 25.6186 6.84945 25.6314ZM8.81219 26.3663C8.55451 26.3266 8.36729 26.2323 8.2506 26.0832C8.13644 25.9323 8.09926 25.7267 8.13922 25.4663L8.33471 24.192C8.36024 24.0256 8.44971 23.9542 8.60306 23.9778C8.7564 24.0014 8.82027 24.0965 8.79473 24.2629L8.59931 25.5372C8.57868 25.6717 8.59232 25.7743 8.64036 25.845C8.69052 25.9161 8.76777 25.9597 8.87211 25.9757C9.12766 26.0151 9.27531 25.9057 9.31494 25.6474L9.51037 24.3732C9.5359 24.2067 9.62537 24.1353 9.77872 24.1589C9.93206 24.1825 9.99599 24.2776 9.97046 24.4441L9.77497 25.7183C9.73534 25.9766 9.63417 26.1598 9.47152 26.268C9.30887 26.3762 9.08907 26.409 8.81219 26.3663ZM10.5563 26.4155C10.5344 26.5585 10.4489 26.6185 10.2998 26.5955C10.2274 26.5844 10.1727 26.5574 10.1357 26.5146C10.0987 26.4717 10.0855 26.4151 10.0963 26.3446L10.306 24.9776C10.3427 24.7385 10.4331 24.5689 10.577 24.4687C10.7214 24.3664 10.9416 24.3381 11.2376 24.3837C11.457 24.4175 11.6195 24.5026 11.725 24.639C11.8326 24.7758 11.8665 24.9743 11.8265 25.2347C11.7918 25.461 11.7056 25.6247 11.5681 25.7258C11.4326 25.8273 11.2573 25.8615 11.0422 25.8283C10.9208 25.8096 10.8309 25.8056 10.7726 25.8163C10.7167 25.8252 10.6776 25.853 10.6551 25.8998C10.6352 25.9448 10.6181 26.0131 10.604 26.1049L10.5563 26.4155ZM10.6695 25.4858C10.6984 25.4684 10.7257 25.454 10.7514 25.4427C10.7774 25.4292 10.8103 25.4212 10.85 25.4185C10.8921 25.4141 10.9461 25.417 11.0121 25.4272C11.1037 25.4413 11.1773 25.445 11.2328 25.4382C11.2887 25.4294 11.3307 25.4042 11.3589 25.3626C11.3892 25.3214 11.4109 25.2581 11.424 25.1727C11.4414 25.0596 11.4401 24.9753 11.4203 24.9198C11.4029 24.8625 11.3709 24.8226 11.3242 24.8001C11.2799 24.7758 11.2238 24.7584 11.1556 24.7479C11.032 24.7289 10.9413 24.7379 10.8833 24.7748C10.8274 24.8121 10.791 24.8862 10.7739 24.9972C10.7619 25.0762 10.7465 25.1623 10.7278 25.2555C10.7091 25.3488 10.6897 25.4255 10.6695 25.4858ZM12.7031 26.9658C12.5178 26.9373 12.3657 26.8767 12.247 26.7841C12.1285 26.6893 12.0481 26.5525 12.0059 26.3733C11.9657 26.1945 11.9677 25.9611 12.0119 25.6729C12.0561 25.3848 12.124 25.1626 12.2156 25.0063C12.3092 24.8503 12.4264 24.7471 12.5672 24.6967C12.7079 24.6463 12.871 24.6353 13.0562 24.6639C13.2436 24.6927 13.3959 24.7522 13.5128 24.8424C13.632 24.9328 13.7117 25.0664 13.7523 25.243C13.7949 25.42 13.7941 25.6525 13.7499 25.9407C13.7057 26.2289 13.6366 26.452 13.5426 26.6101C13.4506 26.7685 13.334 26.8751 13.1926 26.9298C13.0537 26.9827 12.8905 26.9947 12.7031 26.9658ZM12.7679 26.5432C12.8531 26.5563 12.9286 26.5472 12.9945 26.5159C13.0625 26.4848 13.1206 26.4184 13.169 26.3166C13.2194 26.2151 13.2597 26.0662 13.2898 25.8698C13.3202 25.6713 13.3263 25.5182 13.308 25.4105C13.2921 25.301 13.256 25.2233 13.1998 25.1775C13.1461 25.1299 13.0766 25.0996 12.9914 25.0865C12.9083 25.0737 12.833 25.0817 12.7653 25.1106C12.698 25.1374 12.6393 25.2004 12.5892 25.2998C12.5414 25.3973 12.5024 25.5453 12.472 25.7438C12.4418 25.9402 12.4346 26.0942 12.4502 26.2058C12.4678 26.3178 12.5045 26.3988 12.56 26.4489C12.6155 26.4989 12.6848 26.5304 12.7679 26.5432ZM14.4313 27.0125C14.4093 27.1555 14.3239 27.2155 14.1747 27.1925C14.1023 27.1814 14.0476 27.1544 14.0106 27.1115C13.9736 27.0687 13.9604 27.012 13.9712 26.9416L14.1643 25.6834C14.195 25.4827 14.2462 25.3267 14.3178 25.2154C14.3898 25.102 14.4907 25.0269 14.6205 24.9901C14.7505 24.9533 14.9166 24.9505 15.119 24.9816C15.3873 25.023 15.58 25.1171 15.697 25.264C15.8164 25.4091 15.8529 25.6333 15.8064 25.9364L15.6134 27.1946C15.5915 27.3376 15.5059 27.3976 15.3569 27.3746C15.2844 27.3635 15.2297 27.3365 15.1927 27.2937C15.1556 27.2508 15.1425 27.1941 15.1534 27.1237L15.3463 25.8655C15.3706 25.7075 15.3601 25.5912 15.3149 25.5165C15.2721 25.44 15.1869 25.3919 15.059 25.3722C14.9589 25.3568 14.88 25.3599 14.8221 25.3816C14.7643 25.4033 14.7209 25.4446 14.6919 25.5057C14.6629 25.5668 14.6404 25.6497 14.6244 25.7543L14.4313 27.0125Z" fill="black"/>
<path d="M18.6153 14.97C18.4845 15.728 17.8935 16.2585 17.2955 16.1547C16.6974 16.0511 16.3187 15.3525 16.4495 14.5945C16.5804 13.8366 17.1713 13.3061 17.7694 13.4098C18.3674 13.5135 18.7462 14.2121 18.6153 14.97Z" fill="#493311"/>
<path d="M21.4901 17.8777C21.3623 18.7449 20.6001 19.3504 19.7877 19.2302C18.9754 19.1099 18.4205 18.3095 18.5483 17.4423C18.6761 16.5751 19.4383 15.9696 20.2507 16.0898C21.063 16.2101 21.618 17.0105 21.4901 17.8777Z" fill="#EE9E47"/>
<path d="M7.58435 15.6146C7.54776 16.5084 6.79521 17.2032 5.90335 17.1666C5.01152 17.1299 4.31817 16.3758 4.35472 15.482C4.39126 14.5883 5.14386 13.8935 6.03569 13.9301C6.92755 13.9667 7.62088 14.7209 7.58435 15.6146Z" fill="#F1A24D"/>
<path d="M11.5729 16.3256C11.8551 17.072 12.7901 18.204 14.2726 16.7606" stroke="#7E521F" stroke-linecap="round"/>
<path d="M10.067 13.8256C9.92527 14.5816 9.32677 15.1034 8.73021 14.991C8.13372 14.8787 7.76511 14.1748 7.90688 13.4187C8.04871 12.6627 8.64721 12.1409 9.2437 12.2533C9.84026 12.3656 10.2089 13.0696 10.067 13.8256Z" fill="#4A3413"/>
</g>
<defs>
<clipPath id="clip0_7_248">
<rect width="33.0344" height="39" fill="white" transform="translate(0.0218754)"/>
</clipPath>
</defs>
</svg>
