<svg width="24" height="28" viewBox="0 0 24 28" fill="none" xmlns="http://www.w3.org/2000/svg">
<path d="M18.1184 23.2765C18.4845 23.7992 18.6263 24.1883 18.6605 24.4573C18.693 24.7119 18.6292 24.846 18.5826 24.9011C18.5043 24.9136 18.4009 24.9064 18.2737 24.8758C18.1282 24.8408 17.9667 24.7789 17.8024 24.7017C17.5498 24.5829 17.3016 24.4329 17.1123 24.3051L18.1184 23.2765Z" fill="#865B25"/>
<path d="M10.5343 24.5323C10.9319 24.3251 11.5393 24.5539 11.862 25.1613C12.1847 25.7686 12.0311 26.3939 11.6335 26.6011C11.2359 26.8082 10.6285 26.5795 10.3058 25.9721C9.98312 25.3648 10.1367 24.7394 10.5343 24.5323Z" fill="#6F4B1C"/>
<path d="M18.4868 13.2449C19.9878 13.0928 21.2606 13.9873 21.3841 15.1819C21.5076 16.3766 20.4443 17.508 18.9433 17.6601C17.4422 17.8123 16.1695 16.9178 16.046 15.7231C15.9225 14.5285 16.9858 13.3971 18.4868 13.2449Z" fill="#CFE7DD"/>
<path d="M14.3386 24.4393C14.7363 24.2321 15.3436 24.4608 15.6663 25.0682C15.989 25.6756 15.8354 26.3008 15.4378 26.508C15.0402 26.7152 14.4329 26.4865 14.1101 25.8791C13.7874 25.2717 13.9411 24.6464 14.3386 24.4393Z" fill="#6F4B1C"/>
<path d="M12.8689 4.17146C13.0098 3.20247 14.2341 1.18605 16 1" stroke="#6F5C5C" stroke-linecap="round"/>
<path d="M7.79646 4.04651C7.65945 3.0017 6.95622 0.861917 5.23926 0.661312" stroke="#6F5C5C" stroke-linecap="round"/>
<path d="M16.542 9.00744C17.4088 8.19474 18.4251 7.71126 19.362 7.58051C20.2993 7.44977 21.1422 7.67242 21.6943 8.24991C22.2464 8.82735 22.4249 9.67298 22.2418 10.5927C22.0589 11.512 21.5159 12.4906 20.6492 13.3033C19.7824 14.116 18.7661 14.5994 17.8292 14.7302C16.8918 14.8609 16.049 14.6383 15.4969 14.0608C14.9448 13.4834 14.7663 12.6378 14.9493 11.718C15.1323 10.7988 15.6753 9.82014 16.542 9.00744Z" fill="#CFE7DD"/>
<path d="M14.6505 12.8205C18.4995 14.1407 20.6075 18.0289 19.3979 21.4871C18.1883 24.9452 14.1035 26.7091 10.2544 25.3888C6.40538 24.0685 4.29745 20.1803 5.507 16.7221C6.71658 13.264 10.8014 11.5001 14.6505 12.8205Z" fill="#FBCD53"/>
<path d="M12.211 18.5895C15.1856 18.1746 17.1733 15.6737 17.3846 14.4412L16.6923 13.8868L16.0385 13.3585C14.7069 15.1486 10.8252 16.1429 9.17236 16.3708L12.211 18.5895Z" fill="#875A27"/>
<path d="M16.8854 9.13865C16.0761 4.62166 11.8754 3.42807 9.87618 3.3959C4.44227 3.33798 2.69841 7.87591 2.50571 10.1521C2.23594 14.3988 7.30696 15.5409 9.87618 15.5811C16.659 15.6198 17.3751 11.3022 16.8854 9.13865Z" fill="#F8CA4E"/>
<path d="M5.77686 21.2326C14.7569 23.093 18.469 18.6864 18.923 16.4151C19.5806 16.843 19.7698 18.4701 19.7307 19.2453C17.42 24.3616 10.6066 24.6201 7.81991 23.9302C6.82421 23.4651 6.04302 21.938 5.77686 21.2326Z" fill="#865B25"/>
<path d="M12.5748 15.4284L3.28028 13.869C2.73561 13.7776 2.21857 14.1448 2.12544 14.6892L1.29734 19.5299C1.20421 20.0742 1.57026 20.5896 2.11493 20.681L11.4095 22.2404C11.9541 22.3318 12.4712 21.9645 12.5643 21.4202L13.3924 16.5795C13.4855 16.0351 13.1195 15.5198 12.5748 15.4284Z" fill="#FFEAB2"/>
<path d="M14.9059 17.7475C15.1803 18.2467 15.0668 18.7193 14.8309 19.0881C14.5988 19.451 14.2418 19.728 13.9834 19.8746L13.9789 19.8771L13.9742 19.8794C13.4554 20.132 13.0299 20.0874 12.7119 19.903C12.4048 19.7251 12.2197 19.4298 12.1403 19.2116L12.136 19.2001L12.1337 19.188C12.0601 18.8201 12.1653 18.5401 12.337 18.3457C12.5028 18.1581 12.7227 18.058 12.8792 18.0213L12.9027 18.0158L12.9269 18.0172C13.7375 18.0651 14.4437 17.809 14.684 17.6818L14.8279 17.6055L14.9059 17.7475Z" fill="#835723"/>
<path d="M1.93245 15.7721C2.43897 15.9361 2.73054 16.5756 2.51088 17.2412C2.29121 17.9067 1.67445 18.2524 1.16793 18.0884C0.661405 17.9244 0.369885 17.2848 0.589551 16.6193C0.809224 15.9537 1.42593 15.6081 1.93245 15.7721Z" fill="#7F5620"/>
<path d="M3.55535 17.6634C3.52704 17.8458 3.52914 17.9802 3.56165 18.0667C3.59439 18.1517 3.65486 18.2009 3.74306 18.2143C3.79877 18.2228 3.8481 18.2264 3.89107 18.2251C3.93428 18.2223 3.9729 18.2234 4.00694 18.2287C4.06884 18.238 4.11169 18.2579 4.1355 18.2882C4.15955 18.317 4.16848 18.3513 4.16229 18.3911C4.15421 18.4432 4.12867 18.4801 4.08571 18.5018C4.04429 18.5237 3.99335 18.5356 3.93288 18.5374C3.87396 18.5394 3.81433 18.5358 3.75398 18.5266C3.58687 18.5012 3.45855 18.4502 3.36903 18.3739C3.28107 18.2977 3.22469 18.1966 3.19992 18.0705C3.17694 17.9431 3.17936 17.7897 3.20719 17.6104C3.23502 17.4311 3.27946 17.2826 3.34051 17.1648C3.40334 17.0458 3.4885 16.9615 3.59598 16.912C3.705 16.8627 3.84307 16.8508 4.01019 16.8762C4.07053 16.8854 4.1285 16.8997 4.18409 16.9192C4.24123 16.9388 4.28622 16.9653 4.31908 16.9985C4.35348 17.032 4.36664 17.0748 4.35855 17.1269C4.3526 17.1652 4.33368 17.1953 4.30178 17.2171C4.26988 17.2389 4.22299 17.2451 4.1611 17.2356C4.12705 17.2305 4.08973 17.2209 4.04915 17.2068C4.00879 17.1913 3.96076 17.1793 3.90506 17.1708C3.79674 17.1543 3.71801 17.187 3.66886 17.2689C3.62149 17.3496 3.58366 17.4811 3.55535 17.6634ZM4.91318 18.7054C4.77857 18.6849 4.6681 18.6414 4.5818 18.575C4.49573 18.507 4.43734 18.4087 4.40661 18.2801C4.37744 18.1517 4.37891 17.9841 4.41102 17.7772C4.44314 17.5704 4.49246 17.4108 4.55898 17.2986C4.62705 17.1866 4.71221 17.1125 4.81445 17.0763C4.9167 17.0401 5.0351 17.0322 5.16976 17.0527C5.30591 17.0735 5.41647 17.1162 5.50148 17.1809C5.58804 17.2459 5.646 17.3417 5.6754 17.4686C5.70635 17.5956 5.70579 17.7626 5.67366 17.9694C5.64159 18.1763 5.59138 18.3365 5.52304 18.45C5.4563 18.5638 5.37153 18.6403 5.26881 18.6796C5.16788 18.7175 5.04934 18.7261 4.91318 18.7054ZM4.96029 18.402C5.02219 18.4114 5.07705 18.4049 5.1249 18.3824C5.17427 18.3601 5.21654 18.3124 5.25162 18.2393C5.2883 18.1665 5.31756 18.0595 5.33945 17.9186C5.36157 17.776 5.36598 17.6661 5.35265 17.5888C5.34109 17.5102 5.31488 17.4545 5.27407 17.4216C5.23499 17.3874 5.18455 17.3656 5.12265 17.3561C5.0623 17.347 5.00753 17.3527 4.95841 17.3735C4.90947 17.3927 4.86682 17.438 4.83038 17.5093C4.79576 17.5794 4.76739 17.6856 4.74527 17.8281C4.72339 17.9691 4.71808 18.0797 4.7294 18.1598C4.74227 18.2402 4.7689 18.2984 4.80924 18.3343C4.84959 18.3703 4.89993 18.3928 4.96029 18.402ZM6.38624 18.9297C6.19903 18.9012 6.06302 18.8334 5.97824 18.7264C5.8953 18.6181 5.86829 18.4705 5.89732 18.2835L6.03935 17.3687C6.0579 17.2492 6.1229 17.1979 6.23431 17.2148C6.34571 17.2318 6.39211 17.3 6.37356 17.4195L6.23158 18.3344C6.2166 18.4309 6.22651 18.5046 6.26141 18.5554C6.29785 18.6064 6.35398 18.6377 6.42978 18.6493C6.61544 18.6775 6.72271 18.599 6.7515 18.4135L6.89348 17.4987C6.91204 17.3792 6.97704 17.3279 7.08844 17.3449C7.19985 17.3618 7.2463 17.43 7.22775 17.5496L7.08572 18.4644C7.05693 18.6499 6.98342 18.7814 6.86526 18.8591C6.74709 18.9368 6.5874 18.9603 6.38624 18.9297ZM7.65341 18.965C7.63748 19.0676 7.57535 19.1107 7.46704 19.0942C7.41444 19.0862 7.37466 19.0668 7.34779 19.0361C7.32088 19.0053 7.31135 18.9647 7.31919 18.9141L7.47155 17.9326C7.49818 17.761 7.56384 17.6392 7.66843 17.5673C7.77331 17.4938 7.93328 17.4735 8.14834 17.5062C8.30775 17.5305 8.42577 17.5916 8.50242 17.6895C8.58062 17.7877 8.60523 17.9303 8.57621 18.1173C8.55099 18.2797 8.48838 18.3972 8.38843 18.4698C8.28999 18.5427 8.16267 18.5672 8.00636 18.5434C7.91816 18.53 7.85287 18.5271 7.81051 18.5348C7.76993 18.5412 7.74147 18.5611 7.72517 18.5947C7.71066 18.627 7.69826 18.6761 7.68802 18.742L7.65341 18.965ZM7.73564 18.2975C7.75659 18.285 7.77641 18.2747 7.7951 18.2666C7.81403 18.2569 7.83789 18.2511 7.86673 18.2492C7.8973 18.246 7.93657 18.2481 7.98452 18.2554C8.05107 18.2655 8.10452 18.2682 8.14487 18.2633C8.18544 18.257 8.21597 18.2389 8.23645 18.209C8.25848 18.1794 8.27426 18.134 8.28375 18.0727C8.29638 17.9915 8.29549 17.931 8.28107 17.8911C8.26844 17.85 8.24519 17.8214 8.21123 17.8052C8.1791 17.7878 8.13829 17.7753 8.08874 17.7677C7.99899 17.7541 7.93309 17.7605 7.89092 17.787C7.85034 17.8138 7.82389 17.867 7.8115 17.9467C7.80271 18.0034 7.79153 18.0652 7.77796 18.1322C7.76439 18.1991 7.7503 18.2542 7.73564 18.2975ZM9.21303 19.36C9.07842 19.3396 8.96796 19.2961 8.88168 19.2296C8.79559 19.1616 8.73721 19.0633 8.70649 18.9347C8.67733 18.8063 8.67878 18.6387 8.71091 18.4319C8.74299 18.225 8.79235 18.0654 8.85885 17.9532C8.92691 17.8412 9.01206 17.7671 9.11431 17.7309C9.21655 17.6947 9.335 17.6869 9.46961 17.7074C9.60577 17.7281 9.71637 17.7708 9.80134 17.8355C9.8879 17.9005 9.94585 17.9964 9.9753 18.1232C10.0063 18.2502 10.0057 18.4172 9.97356 18.6241C9.94144 18.831 9.89123 18.9912 9.82294 19.1047C9.75615 19.2184 9.67143 19.2949 9.56871 19.3342C9.46778 19.3722 9.34923 19.3808 9.21303 19.36ZM9.26014 19.0567C9.32204 19.066 9.3769 19.0595 9.42476 19.037C9.47416 19.0147 9.51639 18.967 9.55152 18.894C9.58815 18.8211 9.61741 18.7142 9.6393 18.5732C9.66142 18.4307 9.66584 18.3208 9.6525 18.2434C9.64094 18.1648 9.61474 18.1091 9.57392 18.0762C9.53489 18.042 9.4844 18.0202 9.4225 18.0108C9.36215 18.0016 9.30743 18.0074 9.25826 18.0281C9.20932 18.0474 9.16667 18.0926 9.13027 18.164C9.09561 18.234 9.06725 18.3402 9.04512 18.4827C9.02324 18.6237 9.01798 18.7343 9.0293 18.8144C9.04212 18.8948 9.06875 18.953 9.10909 18.9889C9.14944 19.0249 9.19979 19.0474 9.26014 19.0567ZM10.4686 19.3936C10.4527 19.4962 10.3906 19.5394 10.2822 19.5228C10.2296 19.5148 10.1899 19.4954 10.163 19.4647C10.1361 19.4339 10.1265 19.3933 10.1344 19.3427L10.2746 18.4394C10.297 18.2953 10.3342 18.1833 10.3862 18.1034C10.4384 18.022 10.5118 17.968 10.6061 17.9416C10.7005 17.9152 10.8212 17.9132 10.9682 17.9355C11.1632 17.9652 11.3031 18.0328 11.3882 18.1383C11.4749 18.2425 11.5014 18.4034 11.4677 18.621L11.3274 19.5243C11.3115 19.627 11.2494 19.6701 11.1411 19.6536C11.0884 19.6456 11.0487 19.6262 11.0218 19.5954C10.9949 19.5647 10.9853 19.524 10.9932 19.4734L11.1334 18.5701C11.151 18.4567 11.1434 18.3732 11.1105 18.3195C11.0795 18.2646 11.0175 18.2301 10.9247 18.216C10.8519 18.2049 10.7946 18.2071 10.7526 18.2227C10.7106 18.2383 10.679 18.268 10.658 18.3118C10.6369 18.3557 10.6205 18.4152 10.6089 18.4902L10.4686 19.3936Z" fill="black"/>
<path d="M13.5084 10.7477C13.4133 11.2919 12.984 11.6727 12.5495 11.5983C12.115 11.5239 11.8399 11.0223 11.9349 10.4781C12.03 9.93395 12.4593 9.55311 12.8938 9.62758C13.3283 9.702 13.6035 10.2035 13.5084 10.7477Z" fill="#493311"/>
<path d="M15.597 12.8353C15.5041 13.4579 14.9504 13.8926 14.3602 13.8063C13.77 13.72 13.3669 13.1453 13.4597 12.5227C13.5526 11.9 14.1064 11.4653 14.6965 11.5517C15.2867 11.638 15.6899 12.2127 15.597 12.8353Z" fill="#EE9E47"/>
<path d="M5.49424 11.2105C5.46765 11.8522 4.92091 12.351 4.27296 12.3247C3.62503 12.2984 3.1213 11.757 3.14785 11.1153C3.1744 10.4737 3.72118 9.97479 4.36911 10.0011C5.01705 10.0274 5.52077 10.5689 5.49424 11.2105Z" fill="#F1A24D"/>
<path d="M8.39197 11.7209C8.59698 12.2568 9.2763 13.0695 10.3533 12.0333" stroke="#7E521F" stroke-linecap="round"/>
<path d="M7.29798 9.92605C7.19498 10.4688 6.76016 10.8435 6.32675 10.7628C5.89339 10.6821 5.62559 10.1767 5.72858 9.63395C5.83163 9.09116 6.26645 8.71656 6.69981 8.79721C7.13322 8.87786 7.40102 9.3833 7.29798 9.92605Z" fill="#4A3413"/>
</svg>
