<svg width="20" height="25" viewBox="0 0 20 25" fill="none" xmlns="http://www.w3.org/2000/svg">
<path d="M8.73267 4.83022C8.61576 4.03566 8.01566 2.40842 6.55047 2.25586" stroke="#D8D8E0" stroke-linecap="round"/>
<path d="M6.79796 2.15652C6.61203 1.9238 6.22845 1.88453 5.93441 2.11236C5.64037 2.34022 5.58891 2.71674 5.77477 2.94941C5.96071 3.18192 6.34385 3.22069 6.63777 2.99288C6.93168 2.76507 6.9836 2.38919 6.79796 2.15652Z" stroke="#D8D8E0"/>
<path d="M15.3973 1.29968C15.1554 1.47346 15.0965 1.85453 15.309 2.15983C15.5215 2.46516 15.8949 2.53581 16.1368 2.36211C16.3785 2.18831 16.4369 1.80765 16.2244 1.50246C16.0119 1.19727 15.6392 1.12619 15.3973 1.29968Z" stroke="#D8D8E0"/>
<path d="M13.1208 4.48966C13.2345 3.63293 13.8179 1.87836 15.2424 1.71387" stroke="#D8D8E0" stroke-linecap="round"/>
<path d="M4.31111 21.3141C4.03803 21.7628 3.94294 22.0893 3.9299 22.3113C3.91768 22.5215 3.97802 22.6275 4.01986 22.6699C4.08534 22.6755 4.17053 22.6637 4.27394 22.6313C4.39244 22.5942 4.52258 22.5343 4.65409 22.4616C4.85646 22.3498 5.05326 22.2128 5.20262 22.0973L4.31111 21.3141Z" stroke="#D8D8E0"/>
<path d="M8.1561 14.5002L17.5041 12.9502L18.4709 18.5359L9.12301 20.0859L8.1561 14.5002Z" stroke="#D8D8E0" stroke-linejoin="round"/>
<path d="M7.35482 16.1489C7.20524 16.5927 7.36824 16.9567 7.61564 17.2185C7.85905 17.4762 8.19158 17.6459 8.4242 17.7251L8.42822 17.7265L8.43239 17.7276C8.89322 17.8531 9.23377 17.753 9.46579 17.5565C9.68986 17.3668 9.79697 17.1007 9.82922 16.9129L9.83098 16.903L9.83113 16.8929C9.83639 16.5851 9.70891 16.3752 9.53984 16.2443C9.37667 16.118 9.18234 16.0704 9.0492 16.0644L9.02916 16.0634L9.00964 16.0682C8.35543 16.2289 7.74115 16.1288 7.52615 16.0624L7.39736 16.0227L7.35482 16.1489Z" fill="#D9D9D9" stroke="#D8D8E0"/>
<path d="M17.8044 14.6464C17.3841 14.7808 17.1422 15.3053 17.3245 15.851C17.5067 16.3968 18.0184 16.6802 18.4387 16.5458C18.8589 16.4113 19.1008 15.8868 18.9185 15.3411C18.7363 14.7953 18.2246 14.512 17.8044 14.6464Z" fill="#D9D9D9" stroke="#D8D8E0"/>
<path d="M8.7326 9.74369C8.47139 9.78791 8.26298 10.1046 8.3335 10.5038C8.40421 10.9028 8.71 11.1346 8.97275 11.0903C9.23396 11.0461 9.44246 10.7294 9.37185 10.3302C9.30123 9.93099 8.99544 9.69929 8.7326 9.74369Z" fill="#D9D9D9" stroke="#D8D8E0"/>
<path d="M7.23323 11.321C6.82265 11.3804 6.53458 11.7782 6.60104 12.2182C6.66768 12.6587 7.0628 12.9585 7.47428 12.8991C7.88459 12.8395 8.17275 12.4425 8.10647 12.0028C8.03993 11.562 7.6449 11.2615 7.23323 11.321Z" stroke="#D8D8E0"/>
<path d="M15.7883 10.0505C15.3219 10.0692 14.9661 10.4537 14.9848 10.9005C15.0037 11.3474 15.3907 11.7015 15.8572 11.6828C16.3234 11.664 16.6793 11.2804 16.6607 10.8338C16.642 10.3868 16.2548 10.032 15.7883 10.0505Z" stroke="#D8D8E0"/>
<path d="M12.4448 11.3252C12.2747 11.7646 11.7111 12.431 10.8176 11.5813" stroke="#D8D8E0" stroke-linecap="round"/>
<path d="M13.8729 9.06206C13.6126 9.11007 13.4089 9.42946 13.4853 9.82749C13.5618 10.2259 13.872 10.4534 14.1343 10.4051C14.3946 10.3571 14.5975 10.0377 14.5211 9.6397C14.4444 9.24139 14.1352 9.01383 13.8729 9.06206Z" fill="#D9D9D9" stroke="#D8D8E0"/>
<path d="M3.0365 16.09C2.04192 15.8188 0.541012 14.788 2.49401 12.835C1.49943 11.75 -0.00148615 9.30878 1.95151 8.22379C2.67484 7.86212 4.12145 7.68152 5.47775 9.03753C5.92983 7.77171 6.56269 5.80346 8.73274 4.96883C9.90815 4.51675 13.021 3.8389 15.2427 5.78258C16.6894 7.04847 18.8775 10.2855 16.0565 13.1065" stroke="#D8D8E0" stroke-linecap="round"/>
<path d="M5.47052 9.11968C5.2688 10.5107 5.57688 13.7037 8.73265 14.1912" stroke="#D8D8E0" stroke-linecap="square"/>
<path d="M8.73263 14.1914C9.00388 14.1914 9.60063 14.1914 9.81763 14.1914" stroke="#D8D8E0" stroke-linecap="round"/>
<path d="M8.46118 16.3614C7.64743 16.1806 5.74869 15.4934 4.66369 14.1914" stroke="#D8D8E0" stroke-linecap="round"/>
<path d="M14.7 19.0747C13.8862 20.7022 11.228 23.7402 7.10497 22.8722C5.29665 22.3297 1.95124 20.1597 3.57873 15.5484C3.9404 14.8251 4.98923 13.2699 6.29123 12.8359" stroke="#D8D8E0"/>
<path d="M9.00372 19.3451C7.73789 19.4355 4.82648 18.5313 3.30749 16.3613M13.1799 21.0098C10.4674 22.0948 4.82648 21.4608 3.30749 19.0738" stroke="#D8D8E0" stroke-linecap="round"/>
<path d="M6.53662 22.7301C6.43114 23.0002 6.35605 23.5936 6.89951 23.8057C7.12594 23.8942 7.61791 23.8372 7.77428 22.902" stroke="#D8D8E0"/>
<path d="M9.68185 22.8271C9.71229 23.1155 9.91823 23.677 10.4984 23.6158C10.7402 23.5902 11.1509 23.3623 10.8601 22.4599" stroke="#D8D8E0"/>
</svg>
