<svg width="23" height="26" viewBox="0 0 23 26" fill="none" xmlns="http://www.w3.org/2000/svg">
<path d="M5.71851 0.802734L5.88425 0.331004L5.86972 0.325898L5.8549 0.321697L5.71851 0.802734ZM5.79077 0.828125L6.01438 0.380911L5.98622 0.366831L5.95651 0.356395L5.79077 0.828125ZM5.79272 0.829102L5.56912 1.27632L5.58349 1.2835L5.5983 1.28975L5.79272 0.829102ZM6.10522 1.10352L5.67989 1.36637L5.76751 1.50815L5.92267 1.569L6.10522 1.10352ZM7.41382 2.28125L7.84077 2.02103L7.84074 2.02099L7.41382 2.28125ZM7.96948 3.63379L7.48506 3.75761L7.60571 4.22961L8.08068 4.12127L7.96948 3.63379ZM9.87085 3.43848L9.8657 3.93848H9.87085V3.43848ZM9.87183 3.43848L9.87966 2.93848H9.87183V3.43848ZM12.5662 4.00781L12.3806 4.47209L12.9245 4.68952L13.0538 4.11822L12.5662 4.00781ZM13.199 2.52148L12.7847 2.24148L12.7847 2.24156L13.199 2.52148ZM14.5593 1.42188L14.7227 1.89443L14.8708 1.84322L14.9632 1.71666L14.5593 1.42188ZM14.8816 1.1748L14.7272 0.699242L14.7153 0.703108L14.7036 0.707564L14.8816 1.1748ZM14.9568 1.15039L14.8319 0.666232L14.817 0.670076L14.8024 0.674828L14.9568 1.15039ZM15.9382 1.69434L16.4004 1.50355L16.4003 1.50329L15.9382 1.69434ZM15.5339 2.77832L15.7109 3.24597L15.7114 3.24575L15.5339 2.77832ZM14.4783 2.25879L14.0161 2.4495L14.0161 2.44968L14.4783 2.25879ZM14.4119 1.80859L14.9088 1.86343L15.0093 0.95329L14.1893 1.36085L14.4119 1.80859ZM13.447 2.68945L13.0328 2.40946L13.0327 2.40956L13.447 2.68945ZM12.8464 4.12598L12.3572 4.02278L12.2738 4.41823L12.643 4.5827L12.8464 4.12598ZM13.6365 4.53516L13.8935 4.10625L13.8934 4.10623L13.6365 4.53516ZM16.4333 8.19434L15.951 8.32584L16.1436 9.03255L16.7316 8.59567L16.4333 8.19434ZM18.7087 7.22461L18.6418 6.72911L18.6417 6.72912L18.7087 7.22461ZM21.0144 7.87402L21.3703 7.5228L21.3702 7.52273L21.0144 7.87402ZM21.5662 10.1279L22.0559 10.2287L22.0559 10.2286L21.5662 10.1279ZM20.032 12.6602L20.368 13.0304L20.3681 13.0303L20.032 12.6602ZM19.8552 12.8086L19.5341 12.4254L19.0244 12.8524L19.5762 13.2235L19.8552 12.8086ZM20.7673 14.2324L21.2645 14.1794L21.2645 14.1793L20.7673 14.2324ZM19.0056 16.5029L18.8556 16.026L18.3895 16.1725L18.5253 16.6419L19.0056 16.5029ZM19.0115 16.5205L19.4922 16.3829L19.4922 16.3829L19.0115 16.5205ZM19.2244 17.8506L18.7244 17.8446L18.7242 17.8604L18.725 17.8762L19.2244 17.8506ZM18.9041 20.002L18.4338 19.8321L18.4338 19.8321L18.9041 20.002ZM17.8738 21.7578L17.4944 21.4322L17.2563 21.7096L17.4484 22.0206L17.8738 21.7578ZM18.2224 22.6172L18.7182 22.5523L18.7181 22.5517L18.2224 22.6172ZM18.114 23.1367L18.4892 23.4672L18.4904 23.4658L18.114 23.1367ZM18.0779 23.1777L18.1499 23.6725L18.3316 23.6461L18.4531 23.5082L18.0779 23.1777ZM18.0242 23.1855L17.9522 22.6907L17.9481 22.6914L18.0242 23.1855ZM17.8621 23.1904L17.7833 23.6842L17.8035 23.6874L17.8239 23.689L17.8621 23.1904ZM17.6785 23.1611L17.565 23.6481L17.5822 23.6521L17.5997 23.6549L17.6785 23.1611ZM17.2097 22.9941L17.417 22.5391L17.417 22.5391L17.2097 22.9941ZM16.7703 22.7598L17.0241 22.329L16.7456 22.1648L16.4816 22.3515L16.7703 22.7598ZM15.5408 23.4443L15.3446 22.9844L14.944 23.1553L15.0583 23.5756L15.5408 23.4443ZM15.1316 24.625L15.3568 25.0714L15.357 25.0713L15.1316 24.625ZM13.6921 23.9941L13.2537 24.2345L13.2538 24.2346L13.6921 23.9941ZM13.6726 23.9551L14.1176 23.727L13.9562 23.4121L13.6056 23.4596L13.6726 23.9551ZM12.0281 23.998L12.0685 23.4997L11.581 23.4601L11.5307 23.9467L12.0281 23.998ZM11.5779 24.709L11.8031 25.1554L11.8034 25.1552L11.5779 24.709ZM10.1384 24.0781L9.69996 24.3184L9.70008 24.3186L10.1384 24.0781ZM9.96655 23.5469L10.4633 23.4903L10.4283 23.1826L10.1373 23.0769L9.96655 23.5469ZM7.36694 21.96L7.70972 21.5959L7.69958 21.5864L7.68892 21.5774L7.36694 21.96ZM6.85229 21.4238L7.24222 21.1109L7.23706 21.1044L7.23168 21.0982L6.85229 21.4238ZM5.86987 19.9014L6.32374 19.6916L6.21227 19.4504L5.95004 19.4078L5.86987 19.9014ZM1.67358 19.2197L1.59125 19.7129L1.59342 19.7133L1.67358 19.2197ZM1.57593 19.1592L1.1681 19.4485L1.16915 19.4499L1.57593 19.1592ZM1.55054 19.0459L1.05815 18.959L1.05806 18.9595L1.55054 19.0459ZM1.90112 17.0596L2.39351 17.1465L2.48916 16.6046L1.94058 16.5611L1.90112 17.0596ZM1.69019 17.0195L1.54059 17.4966L1.54077 17.4967L1.69019 17.0195ZM1.05249 15.499L0.579281 15.3376L0.579229 15.3377L1.05249 15.499ZM2.33374 14.6045L2.26788 15.1001L2.74254 15.1632L2.82607 14.6917L2.33374 14.6045ZM2.63843 12.8848L2.17305 12.7019L2.1548 12.7484L2.1461 12.7975L2.63843 12.8848ZM2.65991 12.8301L2.23895 12.5603L2.21248 12.6016L2.19454 12.6473L2.65991 12.8301ZM2.8103 12.7627L2.89047 12.2692L2.88865 12.2689L2.8103 12.7627ZM4.27124 13L4.19107 13.4935L5.99634 13.7868L4.59134 12.6159L4.27124 13ZM2.83569 9.68848L3.33462 9.72121L3.33569 9.70486V9.68848H2.83569ZM2.83569 9.68555L2.3376 9.64195L2.33569 9.6637V9.68555H2.83569ZM4.47632 5.75586L4.09226 5.4357L4.09223 5.43574L4.47632 5.75586ZM7.67749 3.7041L7.80943 4.18638L8.28444 4.05643L8.16172 3.5795L7.67749 3.7041ZM7.15698 2.4375L7.58393 2.17728L7.58389 2.17721L7.15698 2.4375ZM6.22827 1.49316L6.47192 1.05654L5.64615 0.595748L5.73025 1.53763L6.22827 1.49316ZM6.19604 1.87012L6.67141 2.02513L6.6748 2.01472L6.67774 2.00417L6.19604 1.87012ZM6.16675 1.95996L6.63535 2.13436L6.63893 2.12473L6.64211 2.11497L6.16675 1.95996ZM5.72241 2.49219V2.99219H5.85012L5.96219 2.93095L5.72241 2.49219ZM5.72144 2.49219V1.99219H5.59414L5.48234 2.05306L5.72144 2.49219ZM5.11206 2.53613L5.30592 2.07524L5.21294 2.03613H5.11206V2.53613ZM5.11108 2.53613L4.91584 2.99644L5.00943 3.03613H5.11108V2.53613ZM4.71851 2.08984L4.24447 2.24888L4.2446 2.24925L4.71851 2.08984ZM4.73901 1.4043L4.27052 1.22961L4.27043 1.22987L4.73901 1.4043ZM5.18433 0.87207L4.94567 0.432704L4.94514 0.432993L5.18433 0.87207ZM5.71851 0.802734L5.55276 1.27446L5.62503 1.29986L5.79077 0.828125L5.95651 0.356395L5.88425 0.331004L5.71851 0.802734ZM5.79077 0.828125L5.56716 1.27534L5.56912 1.27632L5.79272 0.829102L6.01633 0.381888L6.01438 0.380911L5.79077 0.828125ZM5.79272 0.829102L5.5983 1.28975C5.6226 1.30001 5.65201 1.32125 5.67989 1.36637L6.10522 1.10352L6.53056 0.840658C6.40547 0.638255 6.22263 0.467844 5.98715 0.368452L5.79272 0.829102ZM6.10522 1.10352L5.92267 1.569C6.36452 1.74229 6.71771 2.09996 6.98689 2.54151L7.41382 2.28125L7.84074 2.02099C7.50176 1.46494 6.99959 0.917199 6.28778 0.638035L6.10522 1.10352ZM7.41382 2.28125L6.98687 2.54147C7.22478 2.93182 7.38638 3.37156 7.48506 3.75761L7.96948 3.63379L8.45391 3.50996C8.33764 3.0551 8.14319 2.51723 7.84077 2.02103L7.41382 2.28125ZM7.96948 3.63379L8.08068 4.12127C8.6156 3.99925 9.20844 3.93168 9.8657 3.93845L9.87085 3.43848L9.876 2.9385C9.14328 2.93095 8.47221 3.00627 7.85829 3.14631L7.96948 3.63379ZM9.87085 3.43848V3.93848H9.87183V3.43848V2.93848H9.87085V3.43848ZM9.87183 3.43848L9.86399 3.93842C10.5095 3.94853 11.4349 4.09407 12.3806 4.47209L12.5662 4.00781L12.7518 3.54353C11.689 3.1187 10.6427 2.9505 9.87966 2.93854L9.87183 3.43848ZM12.5662 4.00781L13.0538 4.11822C13.142 3.72867 13.321 3.23396 13.6133 2.80141L13.199 2.52148L12.7847 2.24156C12.4076 2.79968 12.1874 3.4166 12.0785 3.89741L12.5662 4.00781ZM13.199 2.52148L13.6132 2.80149C13.8896 2.3926 14.2555 2.05597 14.7227 1.89443L14.5593 1.42188L14.3959 0.949324C13.6673 1.20125 13.1436 1.71063 12.7847 2.24148L13.199 2.52148ZM14.5593 1.42188L14.9632 1.71666C14.9888 1.68157 15.021 1.65675 15.0596 1.64205L14.8816 1.1748L14.7036 0.707564C14.4759 0.794298 14.2898 0.943099 14.1555 1.12709L14.5593 1.42188ZM14.8816 1.1748L15.036 1.65037L15.1112 1.62595L14.9568 1.15039L14.8024 0.674828L14.7272 0.699242L14.8816 1.1748ZM14.9568 1.15039L15.0817 1.63455C15.1911 1.60632 15.3866 1.66881 15.4762 1.88538L15.9382 1.69434L16.4003 1.50329C16.146 0.888274 15.4865 0.497408 14.8319 0.666232L14.9568 1.15039ZM15.9382 1.69434L15.4761 1.88512C15.5709 2.11495 15.454 2.27386 15.3564 2.31089L15.5339 2.77832L15.7114 3.24575C16.4214 2.97614 16.6736 2.16536 16.4004 1.50355L15.9382 1.69434ZM15.5339 2.77832L15.357 2.31067C15.2492 2.35147 15.0369 2.30151 14.9404 2.0679L14.4783 2.25879L14.0161 2.44968C14.2857 3.10225 15.0196 3.50753 15.7109 3.24597L15.5339 2.77832ZM14.4783 2.25879L14.9405 2.06808C14.91 1.99428 14.9022 1.92381 14.9088 1.86343L14.4119 1.80859L13.9149 1.75376C13.8895 1.98351 13.9225 2.22272 14.0161 2.4495L14.4783 2.25879ZM14.4119 1.80859L14.1893 1.36085C13.6897 1.60917 13.3118 1.99665 13.0328 2.40946L13.447 2.68945L13.8613 2.96945C14.071 2.65921 14.328 2.40863 14.6344 2.25633L14.4119 1.80859ZM13.447 2.68945L13.0327 2.40956C12.6644 2.95475 12.4539 3.56411 12.3572 4.02278L12.8464 4.12598L13.3357 4.22917C13.4122 3.86646 13.5809 3.38447 13.8613 2.96935L13.447 2.68945ZM12.8464 4.12598L12.643 4.5827C12.8917 4.69354 13.1388 4.81988 13.3795 4.96409L13.6365 4.53516L13.8934 4.10623C13.6149 3.93942 13.3318 3.79483 13.0499 3.66925L12.8464 4.12598ZM13.6365 4.53516L13.3795 4.96406C14.5041 5.63786 15.5078 6.70003 15.951 8.32584L16.4333 8.19434L16.9157 8.06284C16.3933 6.14633 15.1994 4.88871 13.8935 4.10625L13.6365 4.53516ZM16.4333 8.19434L16.7316 8.59567C17.3955 8.10232 18.1159 7.80932 18.7757 7.7201L18.7087 7.22461L18.6417 6.72912C17.7967 6.84338 16.9198 7.20994 16.1351 7.793L16.4333 8.19434ZM18.7087 7.22461L18.7757 7.72011C19.5767 7.61192 20.2418 7.80321 20.6586 8.22532L21.0144 7.87402L21.3702 7.52273C20.6708 6.81437 19.6555 6.59221 18.6418 6.72911L18.7087 7.22461ZM21.0144 7.87402L20.6585 8.22525C21.0717 8.64389 21.2301 9.27896 21.0764 10.0273L21.5662 10.1279L22.0559 10.2286C22.2585 9.24245 22.0755 8.23735 21.3703 7.5228L21.0144 7.87402ZM21.5662 10.1279L21.0764 10.0272C20.9224 10.7761 20.4582 11.5978 19.6959 12.29L20.032 12.6602L20.3681 13.0303C21.2651 12.2159 21.8535 11.213 22.0559 10.2287L21.5662 10.1279ZM20.032 12.6602L19.6959 12.2899C19.6475 12.3339 19.6123 12.3598 19.5341 12.4254L19.8552 12.8086L20.1764 13.1918C20.2155 13.1591 20.3018 13.0905 20.368 13.0304L20.032 12.6602ZM19.8552 12.8086L19.5762 13.2235C19.9822 13.4965 20.2261 13.8731 20.2702 14.2855L20.7673 14.2324L21.2645 14.1793C21.1836 13.4224 20.7397 12.8009 20.1343 12.3937L19.8552 12.8086ZM20.7673 14.2324L20.2701 14.2854C20.3443 14.9808 19.8168 15.7237 18.8556 16.026L19.0056 16.5029L19.1556 16.9799C20.4174 16.5831 21.4044 15.4921 21.2645 14.1794L20.7673 14.2324ZM19.0056 16.5029L18.5253 16.6419C18.5285 16.653 18.5316 16.6622 18.5336 16.6683C18.5355 16.6739 18.5373 16.6789 18.5376 16.6796C18.5383 16.6816 18.5375 16.6793 18.5365 16.6763C18.5353 16.673 18.5332 16.6665 18.5308 16.6581L19.0115 16.5205L19.4922 16.3829C19.4889 16.3715 19.4858 16.3621 19.4837 16.3559C19.4817 16.35 19.4799 16.3448 19.4795 16.3438C19.4787 16.3416 19.4795 16.3437 19.4804 16.3464C19.4815 16.3496 19.4836 16.3558 19.4859 16.364L19.0056 16.5029ZM19.0115 16.5205L18.5308 16.6581C18.656 17.0956 18.728 17.5418 18.7244 17.8446L19.2244 17.8506L19.7243 17.8566C19.7295 17.4227 19.6328 16.8742 19.4922 16.3829L19.0115 16.5205ZM19.2244 17.8506L18.725 17.8762C18.7584 18.527 18.6668 19.1873 18.4338 19.8321L18.9041 20.002L19.3743 20.1718C19.6536 19.3988 19.7637 18.6054 19.7237 17.825L19.2244 17.8506ZM18.9041 20.002L18.4338 19.8321C18.2186 20.4277 17.8972 20.9629 17.4944 21.4322L17.8738 21.7578L18.2532 22.0835C18.73 21.5279 19.1155 20.8883 19.3743 20.1718L18.9041 20.002ZM17.8738 21.7578L17.4484 22.0206C17.6422 22.3342 17.7094 22.5516 17.7267 22.6827L18.2224 22.6172L18.7181 22.5517C18.677 22.2405 18.5425 21.8889 18.2992 21.495L17.8738 21.7578ZM18.2224 22.6172L17.7266 22.6821C17.7471 22.8383 17.6996 22.8511 17.7376 22.8076L18.114 23.1367L18.4904 23.4658C18.6851 23.2432 18.7664 22.9201 18.7182 22.5523L18.2224 22.6172ZM18.114 23.1367L17.7388 22.8062L17.7027 22.8472L18.0779 23.1777L18.4531 23.5082L18.4892 23.4672L18.114 23.1367ZM18.0779 23.1777L18.0059 22.6829L17.9522 22.6908L18.0242 23.1855L18.0961 23.6803L18.1499 23.6725L18.0779 23.1777ZM18.0242 23.1855L17.9481 22.6914C17.9413 22.6924 17.9255 22.6938 17.9003 22.6919L17.8621 23.1904L17.8239 23.689C17.9146 23.6959 18.0079 23.6939 18.1003 23.6797L18.0242 23.1855ZM17.8621 23.1904L17.9409 22.6967L17.7573 22.6674L17.6785 23.1611L17.5997 23.6549L17.7833 23.6842L17.8621 23.1904ZM17.6785 23.1611L17.7919 22.6742C17.6859 22.6495 17.5573 22.603 17.417 22.5391L17.2097 22.9941L17.0025 23.4492C17.1795 23.5298 17.3734 23.6034 17.565 23.6481L17.6785 23.1611ZM17.2097 22.9941L17.417 22.5391C17.2874 22.4801 17.1555 22.4065 17.0241 22.329L16.7703 22.7598L16.5164 23.1905C16.6573 23.2735 16.8247 23.3682 17.0025 23.4492L17.2097 22.9941ZM16.7703 22.7598L16.4816 22.3515C16.1312 22.5993 15.7501 22.8114 15.3446 22.9844L15.5408 23.4443L15.7369 23.9042C16.2059 23.7042 16.6492 23.4577 17.0589 23.168L16.7703 22.7598ZM15.5408 23.4443L15.0583 23.5756C15.153 23.9238 15.0158 24.1233 14.9062 24.1787L15.1316 24.625L15.357 25.0713C16.024 24.7344 16.1987 23.9581 16.0232 23.3131L15.5408 23.4443ZM15.1316 24.625L14.9063 24.1786C14.7634 24.2507 14.3774 24.2037 14.1305 23.7536L13.6921 23.9941L13.2538 24.2346C13.658 24.9714 14.5638 25.4716 15.3568 25.0714L15.1316 24.625ZM13.6921 23.9941L14.1306 23.7538C14.1334 23.7589 14.1347 23.7618 14.1321 23.7564C14.1315 23.7551 14.1309 23.754 14.13 23.7521C14.1291 23.7503 14.1281 23.7481 14.1269 23.7457C14.1246 23.741 14.1214 23.7344 14.1176 23.727L13.6726 23.9551L13.2276 24.1831C13.2272 24.1822 13.2272 24.1821 13.228 24.1839C13.2296 24.1871 13.2295 24.187 13.2324 24.1929C13.2361 24.2006 13.2439 24.2165 13.2537 24.2345L13.6921 23.9941ZM13.6726 23.9551L13.6056 23.4596C13.1058 23.5272 12.5904 23.542 12.0685 23.4997L12.0281 23.998L11.9876 24.4964C12.5812 24.5446 13.1686 24.5278 13.7397 24.4506L13.6726 23.9551ZM12.0281 23.998L11.5307 23.9467C11.5121 24.1272 11.4318 24.2226 11.3524 24.2627L11.5779 24.709L11.8034 25.1552C12.249 24.93 12.4796 24.4928 12.5254 24.0494L12.0281 23.998ZM11.5779 24.709L11.3526 24.2626C11.2097 24.3347 10.8237 24.2877 10.5768 23.8376L10.1384 24.0781L9.70008 24.3186C10.1043 25.0553 11.01 25.5556 11.8031 25.1554L11.5779 24.709ZM10.1384 24.0781L10.5769 23.8378C10.5116 23.7188 10.4758 23.5995 10.4633 23.4903L9.96655 23.5469L9.46976 23.6034C9.49725 23.8449 9.57399 24.0886 9.69996 24.3184L10.1384 24.0781ZM9.96655 23.5469L10.1373 23.0769C9.19197 22.7336 8.37304 22.2206 7.70972 21.5959L7.36694 21.96L7.02417 22.324C7.78766 23.0429 8.72403 23.6275 9.79585 24.0168L9.96655 23.5469ZM7.36694 21.96L7.68892 21.5774C7.53365 21.4467 7.38391 21.2874 7.24222 21.1109L6.85229 21.4238L6.46237 21.7368C6.63359 21.9501 6.82801 22.1599 7.04497 22.3425L7.36694 21.96ZM6.85229 21.4238L7.23168 21.0982C6.85864 20.6636 6.55388 20.1895 6.32374 19.6916L5.86987 19.9014L5.41601 20.1111C5.68576 20.6947 6.04115 21.2465 6.47291 21.7495L6.85229 21.4238ZM5.86987 19.9014L5.95004 19.4078L1.75375 18.7262L1.67358 19.2197L1.59342 19.7133L5.7897 20.3949L5.86987 19.9014ZM1.67358 19.2197L1.75592 18.7266C1.84442 18.7413 1.92703 18.7905 1.98271 18.8684L1.57593 19.1592L1.16915 19.4499C1.27106 19.5925 1.42434 19.685 1.59125 19.7129L1.67358 19.2197ZM1.57593 19.1592L1.98375 18.8699C2.03852 18.9471 2.05896 19.0414 2.04301 19.1323L1.55054 19.0459L1.05806 18.9595C1.02827 19.1293 1.06699 19.3059 1.1681 19.4485L1.57593 19.1592ZM1.55054 19.0459L2.04293 19.1328L2.39351 17.1465L1.90112 17.0596L1.40873 16.9727L1.05815 18.959L1.55054 19.0459ZM1.90112 17.0596L1.94058 16.5611C1.90284 16.5581 1.86945 16.5517 1.8396 16.5424L1.69019 17.0195L1.54077 17.4967C1.64968 17.5308 1.75761 17.5498 1.86167 17.558L1.90112 17.0596ZM1.69019 17.0195L1.83978 16.5424C1.59748 16.4665 1.36845 16.1218 1.52575 15.6603L1.05249 15.499L0.579229 15.3377C0.284497 16.2024 0.640769 17.2145 1.54059 17.4966L1.69019 17.0195ZM1.05249 15.499L1.5257 15.6605C1.66673 15.2472 2.01897 15.0671 2.26788 15.1001L2.33374 14.6045L2.3996 14.1088C1.60044 14.0027 0.847611 14.5512 0.579281 15.3376L1.05249 15.499ZM2.33374 14.6045L2.82607 14.6917L3.13076 12.972L2.63843 12.8848L2.1461 12.7975L1.84141 14.5173L2.33374 14.6045ZM2.63843 12.8848L3.1038 13.0676L3.12529 13.0129L2.65991 12.8301L2.19454 12.6473L2.17305 12.7019L2.63843 12.8848ZM2.65991 12.8301L3.08087 13.0999C3.00821 13.2132 2.87347 13.279 2.73195 13.2565L2.8103 12.7627L2.88865 12.2689C2.62593 12.2272 2.37404 12.3495 2.23895 12.5603L2.65991 12.8301ZM2.8103 12.7627L2.73014 13.2562L4.19107 13.4935L4.27124 13L4.35141 12.5065L2.89047 12.2692L2.8103 12.7627ZM4.27124 13L4.59134 12.6159C3.77498 11.9356 3.25003 11.0106 3.33462 9.72121L2.83569 9.68848L2.33677 9.65574C2.22824 11.3099 2.92655 12.5302 3.95114 13.3841L4.27124 13ZM2.83569 9.68848H3.33569V9.68555H2.83569H2.33569V9.68848H2.83569ZM2.83569 9.68555L3.33379 9.72915C3.41882 8.75776 3.84998 7.28831 4.86041 6.07598L4.47632 5.75586L4.09223 5.43574C2.9288 6.83165 2.43712 8.50506 2.3376 9.64195L2.83569 9.68555ZM4.47632 5.75586L4.86037 6.07602C5.5496 5.24924 6.50598 4.54296 7.80943 4.18638L7.67749 3.7041L7.54556 3.22182C6.0248 3.63785 4.89851 4.46856 4.09226 5.4357L4.47632 5.75586ZM7.67749 3.7041L8.16172 3.5795C8.05155 3.15136 7.86798 2.64333 7.58393 2.17728L7.15698 2.4375L6.73003 2.69772C6.94942 3.05769 7.10039 3.46776 7.19326 3.8287L7.67749 3.7041ZM7.15698 2.4375L7.58389 2.17721C7.31672 1.73902 6.95434 1.32575 6.47192 1.05654L6.22827 1.49316L5.98463 1.92978C6.27306 2.09074 6.52258 2.35748 6.73008 2.69779L7.15698 2.4375ZM6.22827 1.49316L5.73025 1.53763C5.7365 1.60755 5.73158 1.67414 5.71435 1.73606L6.19604 1.87012L6.67774 2.00417C6.7318 1.8099 6.74164 1.62057 6.72629 1.44869L6.22827 1.49316ZM6.19604 1.87012L5.72068 1.71511L5.69138 1.80495L6.16675 1.95996L6.64211 2.11497L6.67141 2.02513L6.19604 1.87012ZM6.16675 1.95996L5.69815 1.78556C5.64785 1.92071 5.56224 2.00993 5.48264 2.05343L5.72241 2.49219L5.96219 2.93095C6.26964 2.76293 6.50796 2.47664 6.63535 2.13436L6.16675 1.95996ZM5.72241 2.49219V1.99219H5.72144V2.49219V2.99219H5.72241V2.49219ZM5.72144 2.49219L5.48234 2.05306C5.40276 2.09639 5.34248 2.09062 5.30592 2.07524L5.11206 2.53613L4.9182 2.99702C5.26665 3.14358 5.64561 3.10278 5.96053 2.93132L5.72144 2.49219ZM5.11206 2.53613V2.03613H5.11108V2.53613V3.03613H5.11206V2.53613ZM5.11108 2.53613L5.30633 2.07583C5.27052 2.06064 5.22277 2.02067 5.19241 1.93044L4.71851 2.08984L4.2446 2.24925C4.34904 2.55975 4.57113 2.85023 4.91584 2.99644L5.11108 2.53613ZM4.71851 2.08984L5.19254 1.93081C5.16229 1.84066 5.15744 1.71348 5.2076 1.57873L4.73901 1.4043L4.27043 1.22987C4.14299 1.57221 4.13911 1.93482 4.24447 2.24888L4.71851 2.08984ZM4.73901 1.4043L5.20751 1.57898C5.25773 1.44429 5.34344 1.35477 5.42352 1.31115L5.18433 0.87207L4.94514 0.432993C4.63636 0.601198 4.39785 0.888127 4.27052 1.22961L4.73901 1.4043ZM5.18433 0.87207L5.42298 1.31144C5.49325 1.27327 5.54791 1.27408 5.58211 1.28377L5.71851 0.802734L5.8549 0.321697C5.54681 0.234342 5.22401 0.281514 4.94567 0.432704L5.18433 0.87207Z" fill="#808080"/>
<path d="M11.5022 20.1738L11.426 20.668L11.3489 21.1621L4.57153 20.1064L4.64868 19.6123L4.72485 19.1182L11.5022 20.1738ZM16.8557 8.32324C17.0643 10.0385 16.6929 11.3982 16.0569 12.4404C16.4865 12.7567 17.0174 13.1982 17.5305 13.7197C18.2158 14.4164 18.9054 15.2929 19.2571 16.2402C19.3527 16.4989 19.2208 16.7868 18.9622 16.8828C18.7035 16.9786 18.4158 16.8463 18.3196 16.5879C18.0386 15.8311 17.4595 15.0734 16.8176 14.4209C16.3426 13.9381 15.8517 13.5316 15.4641 13.2461C14.5356 14.3012 13.3576 14.8834 12.5247 15.0996L12.4348 14.7539L12.3704 15.1074L4.46021 13.6699L4.63989 12.6855L12.3918 14.0947C13.0652 13.8936 14.0145 13.4026 14.7551 12.5391C15.5273 11.6386 16.0914 10.3186 15.8635 8.44434L16.8557 8.32324Z" fill="#808080"/>
<path d="M2.42062 14.7344C2.64364 15.2137 2.88289 16.3282 2.05566 16.9514" stroke="#808080" stroke-linecap="round"/>
<path d="M7.28857 21.6847C10.2295 21.5249 16.6954 20.4264 19.0319 17.3105" stroke="#808080" stroke-linecap="round"/>
<path d="M10.0266 23.4239C12.0345 23.2841 16.5858 22.4172 18.7276 20.0684" stroke="#808080" stroke-linecap="round"/>
<path d="M11.4998 17.132C11.7919 17.2279 12.7167 16.9322 13.1426 16.7725C13.6294 17.1559 13.3455 17.891 13.1426 18.2105C12.4125 19.0734 11.662 18.9296 11.3781 18.7498C10.3072 18.0308 11.013 17.3717 11.4998 17.132Z" stroke="#808080" stroke-linecap="round"/>
<path d="M12.3994 14.6152L12.0344 17.072" stroke="#808080" stroke-linecap="round"/>
<path d="M11.7302 18.9297L11.426 20.6674" stroke="#808080" stroke-linecap="round"/>
<path d="M13.373 17.0118C14.5088 16.6323 16.8899 15.5618 17.328 14.3154" stroke="#808080" stroke-linecap="round"/>
<mask id="path-10-inside-1_773_1229" fill="white">
<ellipse cx="0.708235" cy="0.905404" rx="0.708235" ry="0.905404" transform="matrix(0.9905 0.13751 -0.141708 0.989909 6.20654 7.78418)"/>
</mask>
<path d="M7.48125 8.87523L6.49075 8.73772C6.48445 8.78175 6.46877 8.7848 6.49221 8.76224C6.51698 8.73839 6.62288 8.66056 6.79315 8.68419L6.65144 9.6741L6.50974 10.664C7.65695 10.8233 8.35701 9.81427 8.47175 9.01274L7.48125 8.87523ZM6.65144 9.6741L6.79315 8.68419C6.96342 8.70783 7.04334 8.81146 7.06046 8.84113C7.07665 8.86919 7.06244 8.86199 7.06874 8.81796L6.07824 8.68045L5.08774 8.54294C4.973 9.34447 5.36253 10.5047 6.50974 10.664L6.65144 9.6741ZM6.07824 8.68045L7.06874 8.81796C7.07504 8.77393 7.09072 8.77087 7.06729 8.79343C7.04251 8.81728 6.93661 8.89512 6.76634 8.87148L6.90805 7.88157L7.04976 6.89166C5.90255 6.73239 5.20248 7.7414 5.08774 8.54294L6.07824 8.68045ZM6.90805 7.88157L6.76634 8.87148C6.59607 8.84784 6.51615 8.74421 6.49903 8.71454C6.48285 8.68648 6.49706 8.69369 6.49075 8.73772L7.48125 8.87523L8.47175 9.01274C8.5865 8.2112 8.19697 7.05093 7.04976 6.89166L6.90805 7.88157Z" fill="#808080" mask="url(#path-10-inside-1_773_1229)"/>
<mask id="path-12-inside-2_773_1229" fill="white">
<ellipse cx="0.708235" cy="0.905404" rx="0.708235" ry="0.905404" transform="matrix(0.9905 0.13751 -0.141708 0.989909 11.6824 8.62305)"/>
</mask>
<path d="M12.9571 9.71409L11.9666 9.57658C11.9603 9.62061 11.9446 9.62367 11.968 9.60111C11.9928 9.57726 12.0987 9.49942 12.269 9.52306L12.1273 10.513L11.9856 11.5029C13.1328 11.6621 13.8328 10.6531 13.9476 9.8516L12.9571 9.71409ZM12.1273 10.513L12.269 9.52306C12.4393 9.5467 12.5192 9.65033 12.5363 9.68C12.5525 9.70806 12.5383 9.70085 12.5446 9.65682L11.5541 9.51931L10.5636 9.3818C10.4488 10.1833 10.8384 11.3436 11.9856 11.5029L12.1273 10.513ZM11.5541 9.51931L12.5446 9.65682C12.5509 9.61279 12.5666 9.60974 12.5431 9.6323C12.5183 9.65615 12.4124 9.73398 12.2422 9.71034L12.3839 8.72044L12.5256 7.73053C11.3784 7.57126 10.6783 8.58027 10.5636 9.3818L11.5541 9.51931ZM12.3839 8.72044L12.2422 9.71034C12.0719 9.68671 11.992 9.58308 11.9749 9.55341C11.9587 9.52535 11.9729 9.53255 11.9666 9.57658L12.9571 9.71409L13.9476 9.8516C14.0623 9.05007 13.6728 7.88979 12.5256 7.73053L12.3839 8.72044Z" fill="#808080" mask="url(#path-12-inside-2_773_1229)"/>
<path d="M7.77515 11.3799C8.1605 12.019 9.25979 12.9857 10.5741 11.7394" stroke="#808080" stroke-linecap="round"/>
</svg>
