<svg width="192" height="226" viewBox="0 0 192 226" fill="none" xmlns="http://www.w3.org/2000/svg">
<path d="M144.947 187.874C147.876 192.093 149.01 195.234 149.284 197.405C149.544 199.46 149.034 200.543 148.66 200.987C148.034 201.088 147.207 201.03 146.19 200.783C145.026 200.501 143.733 200.001 142.419 199.378C140.398 198.419 138.412 197.209 136.898 196.177L144.947 187.874Z" fill="#865B25"/>
<path d="M84.2748 198.011C87.4557 196.338 92.3147 198.185 94.896 203.087C97.4777 207.989 96.2487 213.036 93.0685 214.709C89.8875 216.381 85.0285 214.534 82.4468 209.632C79.8652 204.73 81.0942 199.683 84.2748 198.011Z" fill="#6F4B1C"/>
<path d="M147.895 106.906C159.903 105.678 170.085 112.897 171.072 122.54C172.061 132.183 163.554 141.314 151.546 142.543C139.538 143.771 129.356 136.551 128.368 126.908C127.38 117.265 135.886 108.134 147.895 106.906Z" fill="#CFE7DD"/>
<path d="M114.709 197.26C117.89 195.588 122.749 197.434 125.331 202.336C127.912 207.239 126.683 212.285 123.503 213.958C120.322 215.63 115.463 213.784 112.881 208.881C110.3 203.979 111.529 198.932 114.709 197.26Z" fill="#6F4B1C"/>
<path d="M102.951 33.6696C104.078 25.8485 109.865 9.83076 123.992 8.3291" stroke="black" stroke-width="2" stroke-linecap="round"/>
<path d="M132.807 16.9697C134.189 13.5 132.107 9.41408 128.156 7.8436C124.206 6.27312 119.884 7.81279 118.502 11.2825C117.12 14.7523 119.202 18.8382 123.152 20.4087C127.102 21.9792 131.425 20.4395 132.807 16.9697Z" fill="black"/>
<path d="M62.3719 32.6611C61.2759 24.228 55.65 6.9569 41.9143 5.33774" stroke="black" stroke-width="2" stroke-linecap="round"/>
<path d="M32.9904 10.3465C33.2722 6.67004 37.1688 3.71256 41.6937 3.74078C46.2186 3.769 49.6584 6.77224 49.3766 10.4487C49.0949 14.1251 45.1983 17.0826 40.6734 17.0544C36.1485 17.0262 32.7087 14.0229 32.9904 10.3465Z" fill="black"/>
<path d="M132.336 72.7029C139.27 66.1433 147.401 62.2408 154.895 61.1855C162.394 60.1302 169.137 61.9274 173.554 66.5885C177.971 71.2493 179.399 78.0747 177.934 85.4978C176.471 92.9179 172.127 100.817 165.193 107.376C158.259 113.936 150.128 117.838 142.633 118.894C135.135 119.949 128.392 118.152 123.975 113.491C119.558 108.83 118.13 102.005 119.594 94.5813C121.058 87.1616 125.402 79.2625 132.336 72.7029Z" fill="#CFE7DD"/>
<path d="M117.203 103.479C147.995 114.136 164.859 145.519 155.183 173.431C145.506 201.343 112.827 215.581 82.035 204.924C51.2425 194.267 34.3791 162.884 44.0555 134.972C53.7321 107.059 86.4108 92.8226 117.203 103.479Z" fill="#FBCD53"/>
<path d="M135.083 73.762C128.609 37.3034 95.0032 27.6694 79.0097 27.4097C35.5384 26.9423 21.5875 63.5698 20.0459 81.9419C17.8878 116.219 58.4559 125.437 79.0097 125.762C133.272 126.074 139.001 91.2252 135.083 73.762Z" fill="#F8CA4E"/>
<path d="M45.5 171.5C117.34 186.517 148.368 151.333 152 133C155.615 138.007 158.159 149.08 157.846 155.337C139.36 196.633 85.2934 199.569 63 194C55.0344 190.246 47.6293 177.194 45.5 171.5Z" fill="#865B25"/>
<path d="M145.5 123C140.7 115.8 131.5 110 127.5 108C117.5 123.6 94 125.833 83.5 125L85 134L105.5 145.5C131.9 143.5 143.167 129.667 145.5 123Z" fill="#865B25"/>
<path d="M104.545 125.197L22.2967 111.275C20.1185 110.906 18.0534 112.373 17.6841 114.551L9.69868 161.646C9.32937 163.824 10.7957 165.889 12.9739 166.257L95.2219 180.18C97.4 180.548 99.4652 179.081 99.8345 176.903L107.82 129.808C108.189 127.63 106.723 125.566 104.545 125.197Z" fill="#FFEAB2"/>
<path d="M118.368 143.146C120.564 147.175 119.655 150.989 117.768 153.966C115.911 156.895 113.055 159.132 110.988 160.315L110.952 160.335L110.915 160.354C106.765 162.392 103.36 162.032 100.816 160.544C98.3594 159.108 96.8786 156.725 96.2433 154.963L96.2095 154.87L96.1907 154.773C95.6015 151.804 96.4432 149.544 97.8172 147.974C99.1432 146.46 100.903 145.652 102.155 145.355L102.343 145.311L102.536 145.323C109.021 145.709 114.671 143.642 116.593 142.615L117.745 142L118.368 143.146Z" fill="#835723"/>
<path d="M15.4598 127.303C19.512 128.627 21.8446 133.789 20.0873 139.161C18.3299 144.533 13.3959 147.323 9.34366 145.999C5.29149 144.676 2.95932 139.513 4.71665 134.141C6.47403 128.769 11.4076 125.98 15.4598 127.303Z" fill="#7F5620"/>
<path d="M108.067 86.7495C107.307 91.1418 103.872 94.2157 100.396 93.6147C96.9205 93.014 94.7191 88.9659 95.4796 84.5736C96.2401 80.1812 99.6746 77.1073 103.151 77.7083C106.626 78.309 108.828 82.3571 108.067 86.7495Z" fill="#493311"/>
<path d="M124.776 103.599C124.033 108.625 119.603 112.133 114.882 111.436C110.16 110.74 106.935 106.101 107.678 101.076C108.421 96.0504 112.851 92.5417 117.572 93.2385C122.294 93.9353 125.519 98.5739 124.776 103.599Z" fill="#EE9E47"/>
<path d="M43.9541 90.4849C43.7415 95.6641 39.3676 99.6904 34.1839 99.4783C29.0005 99.2658 24.9707 94.8956 25.1831 89.7164C25.3954 84.5375 29.7697 80.5108 34.9531 80.7233C40.1367 80.9354 44.1664 85.306 43.9541 90.4849Z" fill="#F1A24D"/>
<path d="M67.1362 94.6047C68.7763 98.9302 74.2109 105.49 82.8269 97.1256" stroke="#7E521F" stroke-width="3" stroke-linecap="round"/>
<path d="M58.3838 80.1174C57.5598 84.4985 54.0813 87.5224 50.614 86.8711C47.1471 86.2201 45.0047 82.1409 45.8287 77.7598C46.653 73.3787 50.1316 70.3551 53.5985 71.0061C57.0657 71.657 59.2082 75.7367 58.3838 80.1174Z" fill="#4A3413"/>
<path d="M41.1539 137.861L43.1255 138.166L41.5625 148.261L39.5909 147.956L41.1539 137.861ZM41.9803 141.935L44.3522 142.302L44.0997 143.932L41.7278 143.566L41.9803 141.935ZM32.4325 148.702L41.7717 150.145L41.5261 151.731L32.187 150.288L32.4325 148.702ZM32.8686 145.885L34.8551 146.192L34.3662 149.349L32.3798 149.043L32.8686 145.885ZM32.5675 137.536L34.5243 137.839L34.2214 139.795L36.9193 140.212L37.2223 138.255L39.1643 138.556L38.0855 145.523L31.4888 144.503L32.5675 137.536ZM33.9873 141.307L33.6866 143.249L36.3846 143.666L36.6852 141.724L33.9873 141.307ZM54.7362 139.93L56.7226 140.236L54.5973 153.963L52.6109 153.656L54.7362 139.93ZM55.4039 145.421L57.8202 145.794L57.57 147.41L55.1537 147.037L55.4039 145.421ZM50.9136 140.796L52.8556 141.096C52.6429 142.47 52.244 143.739 51.659 144.903C51.0838 146.069 50.267 147.096 49.2086 147.985C48.1615 148.865 46.8181 149.568 45.1784 150.094L44.2984 148.425C45.6005 147.989 46.7023 147.441 47.6039 146.781C48.5154 146.122 49.2354 145.328 49.764 144.398C50.304 143.459 50.6688 142.377 50.8586 141.152L50.9136 140.796ZM46.3626 140.093L51.9365 140.954L51.6909 142.54L46.1171 141.679L46.3626 140.093ZM61.7176 148.946L63.704 149.253L62.8387 154.842L60.8523 154.535L61.7176 148.946ZM69.2604 142.189L71.2468 142.496L69.1215 156.222L67.1351 155.915L69.2604 142.189ZM58.4612 149.293L58.4867 147.658C59.3267 147.788 60.2466 147.925 61.2463 148.069C62.246 148.213 63.2692 148.336 64.3161 148.437C65.363 148.538 66.3855 148.6 67.3838 148.623L67.2673 150.062C66.24 150.095 65.2064 150.072 64.1663 149.993C63.1362 149.914 62.1353 149.81 61.1638 149.68C60.2021 149.552 59.3012 149.423 58.4612 149.293ZM65.088 151L68.2159 151.483L67.9864 152.966L64.8585 152.482L65.088 151ZM63.9083 141.954C64.5803 142.058 65.1599 142.269 65.6469 142.587C66.1439 142.906 66.5077 143.302 66.7384 143.772C66.9706 144.233 67.0439 144.74 66.9582 145.294C66.871 145.857 66.6462 146.328 66.2839 146.707C65.9217 147.087 65.4553 147.353 64.8849 147.508C64.326 147.655 63.7105 147.676 63.0384 147.572C62.3664 147.468 61.7812 147.261 61.2827 146.952C60.7956 146.633 60.4318 146.238 60.1912 145.766C59.9606 145.295 59.8888 144.778 59.976 144.215C60.0617 143.662 60.2849 143.2 60.6457 142.831C61.0178 142.453 61.4842 142.186 62.0447 142.03C62.6151 141.875 63.2363 141.85 63.9083 141.954ZM63.6788 143.436C63.3625 143.387 63.0675 143.397 62.7937 143.466C62.5314 143.527 62.3157 143.646 62.1468 143.822C61.9778 143.998 61.8719 144.225 61.8291 144.501C61.7847 144.788 61.8164 145.041 61.9241 145.26C62.0319 145.479 62.2016 145.657 62.4334 145.794C62.6751 145.932 62.954 146.026 63.2703 146.075C63.5964 146.125 63.8857 146.119 64.1382 146.057C64.4005 145.996 64.6162 145.878 64.7852 145.702C64.964 145.527 65.0756 145.296 65.12 145.01C65.1628 144.733 65.1254 144.484 65.0078 144.264C64.9 144.045 64.7303 143.867 64.4985 143.73C64.2782 143.584 64.0049 143.487 63.6788 143.436ZM74.8935 150.208L76.8651 150.513L76.2707 154.352L74.2991 154.047L74.8935 150.208ZM79.8744 150.978L81.846 151.282L81.2516 155.122L79.28 154.817L79.8744 150.978ZM71.615 153.344L84.0524 155.266L83.8046 156.867L71.3672 154.945L71.615 153.344ZM79.3378 144.444C80.3261 144.597 81.1819 144.886 81.9053 145.311C82.6386 145.738 83.1798 146.262 83.529 146.883C83.8896 147.495 84.0117 148.177 83.8954 148.928C83.7807 149.669 83.4581 150.282 82.9277 150.767C82.4087 151.243 81.7351 151.574 80.9069 151.76C80.0886 151.947 79.1854 151.964 78.1971 151.811C77.2187 151.66 76.3629 151.371 75.6296 150.944C74.9061 150.519 74.3641 150 74.0036 149.388C73.6445 148.766 73.5224 148.084 73.6372 147.343C73.7534 146.592 74.076 145.979 74.6049 145.504C75.1353 145.019 75.8097 144.683 76.6279 144.496C77.4561 144.31 78.3594 144.293 79.3378 144.444ZM79.1014 145.971C78.4689 145.873 77.8967 145.876 77.3849 145.979C76.8846 146.074 76.4765 146.259 76.1607 146.534C75.8449 146.809 75.651 147.178 75.5791 147.643C75.5103 148.087 75.584 148.493 75.8003 148.861C76.0182 149.218 76.3506 149.523 76.7974 149.774C77.2556 150.017 77.801 150.187 78.4335 150.285C79.0759 150.384 79.6472 150.386 80.1476 150.291C80.6594 150.188 81.0683 149.999 81.3742 149.722C81.6915 149.437 81.8846 149.072 81.9535 148.628C82.0254 148.163 81.9524 147.752 81.7345 147.395C81.5265 147.039 81.1934 146.739 80.7352 146.497C80.2884 146.245 79.7438 146.07 79.1014 145.971Z" fill="black"/>
</svg>
